<?xml version="1.0" encoding="UTF-8" standalone="no"?>
<svg
   xmlns:dc="http://purl.org/dc/elements/1.1/"
   xmlns:cc="http://creativecommons.org/ns#"
   xmlns:rdf="http://www.w3.org/1999/02/22-rdf-syntax-ns#"
   xmlns:svg="http://www.w3.org/2000/svg"
   xmlns="http://www.w3.org/2000/svg"
   id="svg1473"
   version="1.1"
   viewBox="0 0 210 210"
   height="210mm"
   width="210mm">
  <defs
     id="defs1467" />
  <metadata
     id="metadata1470">
    <rdf:RDF>
      <cc:Work
         rdf:about="">
        <dc:format>image/svg+xml</dc:format>
        <dc:type
           rdf:resource="http://purl.org/dc/dcmitype/StillImage" />
        <dc:title></dc:title>
      </cc:Work>
    </rdf:RDF>
  </metadata>
  <g
     transform="translate(0,-87)"
     id="layer1">
    <path
       id="rect2018"
       d="m 24.042886,89.171516 c -0.706922,0 -1.413907,0.271048 -1.955587,0.812727 L 3.6116285,108.46056 c -1.0833574,1.08336 -1.0833538,2.82717 0,3.91052 L 83.351995,192.11145 3.6116285,271.85181 c -1.0833538,1.08336 -1.0833538,2.82783 0,3.91119 l 18.4756705,18.47631 c 1.083363,1.08335 2.827818,1.08335 3.911173,0 l 79.740358,-79.74037 79.74037,79.74037 c 1.08336,1.08335 2.82782,1.08335 3.91117,0 L 207.86604,275.763 c 1.08336,-1.08337 1.08336,-2.82782 0,-3.91119 l -79.74036,-79.74036 79.74036,-79.74037 c 1.08336,-1.08335 1.08336,-2.82716 0,-3.91052 L 189.39037,89.984243 c -1.08335,-1.083353 -2.82781,-1.083358 -3.91117,0 L 105.73883,169.72461 25.998472,89.984243 c -0.541677,-0.541676 -1.248667,-0.812727 -1.955586,-0.812727 z"
       style="opacity:0.98000004;fill:#d40000;fill-opacity:1;fill-rule:nonzero;stroke:#000000;stroke-width:2.32658219;stroke-miterlimit:4;stroke-dasharray:none;stroke-dashoffset:0;stroke-opacity:1" />
  </g>
</svg>
