<?xml version="1.0" encoding="UTF-8" standalone="no"?>
<!-- Created with Inkscape (http://www.inkscape.org/) -->

<svg
   xmlns:dc="http://purl.org/dc/elements/1.1/"
   xmlns:cc="http://creativecommons.org/ns#"
   xmlns:rdf="http://www.w3.org/1999/02/22-rdf-syntax-ns#"
   xmlns:svg="http://www.w3.org/2000/svg"
   xmlns="http://www.w3.org/2000/svg"
   xmlns:sodipodi="http://sodipodi.sourceforge.net/DTD/sodipodi-0.dtd"
   xmlns:inkscape="http://www.inkscape.org/namespaces/inkscape"
   width="210mm"
   height="210mm"
   viewBox="0 0 210 210"
   version="1.1"
   id="svg2063"
   inkscape:version="0.92.4 (33fec40, 2019-01-16)"
   sodipodi:docname="gear.svg">
  <defs
     id="defs2057" />
  <sodipodi:namedview
     id="base"
     pagecolor="#ffffff"
     bordercolor="#666666"
     borderopacity="1.0"
     inkscape:pageopacity="0.0"
     inkscape:pageshadow="2"
     inkscape:zoom="0.49497475"
     inkscape:cx="673.38672"
     inkscape:cy="375.25182"
     inkscape:document-units="mm"
     inkscape:current-layer="layer1"
     showgrid="false"
     inkscape:window-width="1920"
     inkscape:window-height="995"
     inkscape:window-x="0"
     inkscape:window-y="28"
     inkscape:window-maximized="1" />
  <metadata
     id="metadata2060">
    <rdf:RDF>
      <cc:Work
         rdf:about="">
        <dc:format>image/svg+xml</dc:format>
        <dc:type
           rdf:resource="http://purl.org/dc/dcmitype/StillImage" />
        <dc:title></dc:title>
      </cc:Work>
    </rdf:RDF>
  </metadata>
  <g
     inkscape:label="Vrstva 1"
     inkscape:groupmode="layer"
     id="layer1"
     transform="translate(0,-87)">
    <path
       style="opacity:1;fill:#000000;fill-opacity:1;fill-rule:nonzero;stroke:none;stroke-width:2.11367893;stroke-miterlimit:4;stroke-dasharray:none;stroke-dashoffset:0;stroke-opacity:1"
       d="m 87.32842,94.420755 a 99.596717,99.596717 0 0 0 -28.682487,10.147705 27.214287,27.214287 0 0 1 0.415481,4.71289 27.214287,27.214287 0 0 1 -27.214361,27.21384 27.214287,27.214287 0 0 1 -7.685835,-1.12448 99.596717,99.596717 0 0 0 -13.545426,27.78383 27.214287,27.214287 0 0 1 8.228438,5.63894 27.214287,27.214287 0 0 1 0,38.48654 27.214287,27.214287 0 0 1 -10.2365843,6.40116 99.596717,99.596717 0 0 0 9.4076943,25.23463 27.214287,27.214287 0 0 1 9.583912,-1.75752 27.214287,27.214287 0 0 1 27.214875,27.21488 27.214287,27.214287 0 0 1 -2.644799,11.62565 99.596717,99.596717 0 0 0 25.306983,11.50782 27.214287,27.214287 0 0 1 5.208465,-7.36802 27.214287,27.214287 0 0 1 38.486544,-5.2e-4 27.214287,27.214287 0 0 1 6.04614,9.21701 99.596717,99.596717 0 0 0 26.59631,-10.01903 27.214287,27.214287 0 0 1 -1.31052,-8.23877 27.214287,27.214287 0 0 1 27.21488,-27.21384 27.214287,27.214287 0 0 1 9.97045,1.91926 99.596717,99.596717 0 0 0 11.74244,-26.06456 27.214287,27.214287 0 0 1 -5.59656,-4.28656 27.214287,27.214287 0 0 1 5.2e-4,-38.48706 27.214287,27.214287 0 0 1 7.35355,-5.2033 99.596717,99.596717 0 0 0 -10.33373,-27.90269 27.214287,27.214287 0 0 1 -5.73299,0.64441 27.214287,27.214287 0 0 1 -27.21384,-27.21436 27.214287,27.214287 0 0 1 1.19269,-7.95352 99.596717,99.596717 0 0 0 -27.31203,-12.719637 27.214287,27.214287 0 0 1 -3.31659,4.064867 27.214287,27.214287 0 0 1 -38.486538,-5.2e-4 27.214287,27.214287 0 0 1 -4.657082,-6.259045 z m 19.14974,54.107295 a 43.656249,43.656249 0 0 1 30.23226,12.78216 43.656249,43.656249 0 0 1 12.78217,31.5066 43.656249,43.656249 0 0 1 -12.78217,30.23278 43.656249,43.656249 0 0 1 -31.5066,12.78165 43.656249,43.656249 0 0 1 -30.233301,-12.78165 43.656249,43.656249 0 0 1 -12.781648,-31.50815 43.656249,43.656249 0 0 1 12.782166,-30.23123 43.656249,43.656249 0 0 1 31.507123,-12.78216 z"
       id="path2608"
       inkscape:connector-curvature="0" />
  </g>
</svg>
