<?xml version="1.0" encoding="UTF-8" standalone="no"?>
<svg
   xmlns:dc="http://purl.org/dc/elements/1.1/"
   xmlns:cc="http://creativecommons.org/ns#"
   xmlns:rdf="http://www.w3.org/1999/02/22-rdf-syntax-ns#"
   xmlns:svg="http://www.w3.org/2000/svg"
   xmlns="http://www.w3.org/2000/svg"
   xmlns:xlink="http://www.w3.org/1999/xlink"
   id="svg8"
   version="1.1"
   viewBox="0 0 210 210"
   height="210mm"
   width="210mm">
  <defs
     id="defs2">
    <linearGradient
       id="linearGradient837">
      <stop
         id="stop833"
         offset="0"
         style="stop-color:#116800;stop-opacity:1" />
      <stop
         id="stop835"
         offset="1"
         style="stop-color:#44aa00;stop-opacity:1" />
    </linearGradient>
    <linearGradient
       gradientUnits="userSpaceOnUse"
       y2="79.522957"
       x2="752.56366"
       y1="620.96472"
       x1="163.64471"
       id="linearGradient839"
       xlink:href="#linearGradient837" />
  </defs>
  <metadata
     id="metadata5">
    <rdf:RDF>
      <cc:Work
         rdf:about="">
        <dc:format>image/svg+xml</dc:format>
        <dc:type
           rdf:resource="http://purl.org/dc/dcmitype/StillImage" />
        <dc:title></dc:title>
      </cc:Work>
    </rdf:RDF>
  </metadata>
  <g
     transform="translate(0,-87)"
     id="layer1">
    <path
       id="rect815"
       transform="matrix(0.26458333,0,0,0.26458333,0,87)"
       d="M 271.67383 6.1796875 C 267.042 6.1796875 263.3125 9.9091857 263.3125 14.541016 L 263.3125 259.05469 L 18.798828 259.05469 C 14.166998 259.05469 10.4375 262.78419 10.4375 267.41602 L 10.4375 522.08984 C 10.4375 526.72167 14.166998 530.44922 18.798828 530.44922 L 263.3125 530.44922 L 263.3125 774.96484 C 263.3125 779.59667 267.042 783.32617 271.67383 783.32617 L 526.34766 783.32617 C 530.97949 783.32617 534.70703 779.59667 534.70703 774.96484 L 534.70703 530.44922 L 779.22266 530.44922 C 783.85449 530.44922 787.58398 526.72167 787.58398 522.08984 L 787.58398 267.41602 C 787.58398 262.78419 783.85449 259.05469 779.22266 259.05469 L 534.70703 259.05469 L 534.70703 14.541016 C 534.70703 9.9091857 530.97949 6.1796875 526.34766 6.1796875 L 271.67383 6.1796875 z "
       style="opacity:0.98000004;fill:url(#linearGradient839);fill-opacity:1;fill-rule:nonzero;stroke:#000000;stroke-width:7.03370088;stroke-miterlimit:4;stroke-dasharray:none;stroke-dashoffset:0;stroke-opacity:1" />
  </g>
</svg>
